<mxfile host="app.diagrams.net" agent="Mozilla/5.0 (Windows NT 10.0; Win64; x64) AppleWebKit/537.36 (KHTML, like Gecko) Chrome/138.0.0.0 Safari/537.36 Edg/138.0.0.0" version="28.0.3">
  <diagram name="Página-1" id="rFR8K_7sO5eIyXem7-WY">
    <mxGraphModel dx="537" dy="1836" grid="1" gridSize="10" guides="1" tooltips="1" connect="1" arrows="1" fold="1" page="1" pageScale="1" pageWidth="827" pageHeight="1169" math="0" shadow="0">
      <root>
        <mxCell id="0" />
        <mxCell id="1" parent="0" />
        <mxCell id="z7XcYatPvUQ4AWnQfeAj-2" value="&lt;div&gt;Account&lt;/div&gt;&lt;div&gt;&lt;br&gt;&lt;/div&gt;" style="swimlane;fontStyle=1;align=center;verticalAlign=top;childLayout=stackLayout;horizontal=1;startSize=26;horizontalStack=0;resizeParent=1;resizeParentMax=0;resizeLast=0;collapsible=1;marginBottom=0;whiteSpace=wrap;html=1;" parent="1" vertex="1">
          <mxGeometry x="40" y="-360" width="370" height="226" as="geometry" />
        </mxCell>
        <mxCell id="yP7QUt1Fur2RPfK34HX2-2" style="edgeStyle=none;curved=1;rounded=0;orthogonalLoop=1;jettySize=auto;html=1;fontSize=12;startSize=8;endSize=8;" edge="1" parent="z7XcYatPvUQ4AWnQfeAj-2" source="z7XcYatPvUQ4AWnQfeAj-3">
          <mxGeometry relative="1" as="geometry">
            <mxPoint x="470" y="56" as="targetPoint" />
          </mxGeometry>
        </mxCell>
        <mxCell id="z7XcYatPvUQ4AWnQfeAj-3" value="– name : String&lt;div&gt;_balance : double&lt;/div&gt;" style="text;strokeColor=none;fillColor=none;align=left;verticalAlign=top;spacingLeft=4;spacingRight=4;overflow=hidden;rotatable=0;points=[[0,0.5],[1,0.5]];portConstraint=eastwest;whiteSpace=wrap;html=1;" parent="z7XcYatPvUQ4AWnQfeAj-2" vertex="1">
          <mxGeometry y="26" width="370" height="60" as="geometry" />
        </mxCell>
        <mxCell id="z7XcYatPvUQ4AWnQfeAj-4" value="" style="line;strokeWidth=1;fillColor=none;align=left;verticalAlign=middle;spacingTop=-1;spacingLeft=3;spacingRight=3;rotatable=0;labelPosition=right;points=[];portConstraint=eastwest;strokeColor=inherit;" parent="z7XcYatPvUQ4AWnQfeAj-2" vertex="1">
          <mxGeometry y="86" width="370" height="8" as="geometry" />
        </mxCell>
        <mxCell id="yP7QUt1Fur2RPfK34HX2-1" style="edgeStyle=none;curved=1;rounded=0;orthogonalLoop=1;jettySize=auto;html=1;fontSize=12;startSize=8;endSize=8;" edge="1" parent="z7XcYatPvUQ4AWnQfeAj-2" source="z7XcYatPvUQ4AWnQfeAj-5">
          <mxGeometry relative="1" as="geometry">
            <mxPoint x="460" y="170" as="targetPoint" />
          </mxGeometry>
        </mxCell>
        <mxCell id="z7XcYatPvUQ4AWnQfeAj-5" value="&lt;div&gt;«constructor» Account(name: String, balance : double)&lt;/div&gt;&lt;div&gt;+ deposit ( depositAmount : double)&lt;/div&gt;&lt;div&gt;+getBalance () : double&lt;/div&gt;&lt;div&gt;+ setName (name: String)&lt;/div&gt;&lt;div&gt;+ getName() : String&lt;/div&gt;" style="text;strokeColor=none;fillColor=none;align=left;verticalAlign=top;spacingLeft=4;spacingRight=4;overflow=hidden;rotatable=0;points=[[0,0.5],[1,0.5]];portConstraint=eastwest;whiteSpace=wrap;html=1;" parent="z7XcYatPvUQ4AWnQfeAj-2" vertex="1">
          <mxGeometry y="94" width="370" height="132" as="geometry" />
        </mxCell>
        <mxCell id="yP7QUt1Fur2RPfK34HX2-3" value="Compartimento inferior" style="text;html=1;align=center;verticalAlign=middle;resizable=0;points=[];autosize=1;strokeColor=none;fillColor=none;fontSize=16;" vertex="1" parent="1">
          <mxGeometry x="510" y="-209" width="190" height="30" as="geometry" />
        </mxCell>
        <mxCell id="yP7QUt1Fur2RPfK34HX2-4" value="Compartimento intermediário" style="text;html=1;align=center;verticalAlign=middle;resizable=0;points=[];autosize=1;strokeColor=none;fillColor=none;fontSize=16;" vertex="1" parent="1">
          <mxGeometry x="520" y="-319" width="230" height="30" as="geometry" />
        </mxCell>
        <mxCell id="yP7QUt1Fur2RPfK34HX2-5" value="Compartimento superior" style="text;html=1;align=center;verticalAlign=middle;resizable=0;points=[];autosize=1;strokeColor=none;fillColor=none;fontSize=16;" vertex="1" parent="1">
          <mxGeometry x="414" y="-360" width="200" height="30" as="geometry" />
        </mxCell>
      </root>
    </mxGraphModel>
  </diagram>
</mxfile>
